<?xml version="1.0" standalone="no"?>
<!DOCTYPE svg PUBLIC "-//W3C//DTD SVG 20010904//EN"
 "http://www.w3.org/TR/2001/REC-SVG-20010904/DTD/svg10.dtd">
<svg version="1.0" xmlns="http://www.w3.org/2000/svg"
 width="260.000000pt" height="260.000000pt" viewBox="0 0 260.000000 260.000000"
 preserveAspectRatio="xMidYMid meet">
<metadata>
Created by potrace 1.11, written by Peter Selinger 2001-2013
</metadata>
<g transform="translate(0.000000,260.000000) scale(0.100000,-0.100000)"
fill="#000000" stroke="none">
<path d="M0 1300 l0 -1300 1300 0 1300 0 0 1300 0 1300 -1300 0 -1300 0 0
-1300z m2365 420 c39 -5 83 -13 97 -19 l27 -10 -26 -78 c-14 -43 -26 -79 -27
-80 -1 -1 -22 5 -46 14 -59 20 -215 23 -250 4 -32 -18 -40 -30 -40 -63 0 -34
30 -58 117 -93 145 -58 193 -115 193 -230 0 -36 -6 -80 -13 -98 -52 -122 -213
-187 -427 -174 -81 6 -193 27 -206 40 -2 2 8 38 22 81 21 62 29 76 43 71 131
-51 296 -44 342 13 46 58 14 102 -110 153 -97 39 -164 94 -182 146 -24 72 7
190 63 239 89 78 239 108 423 84z m-1701 -275 c44 -145 82 -269 86 -275 3 -6
30 106 59 247 29 142 54 266 57 276 5 15 19 17 105 17 88 0 99 -2 99 -17 -1
-10 -38 -191 -84 -403 l-83 -385 -136 -3 -136 -3 -31 103 c-62 202 -111 364
-127 413 l-16 50 -53 -260 c-29 -143 -56 -270 -59 -282 -5 -22 -10 -23 -105
-23 -74 0 -100 3 -100 13 0 10 146 694 165 775 5 21 9 22 143 22 l138 0 78
-265z m681 115 c-17 -83 -29 -152 -27 -155 3 -3 61 -5 128 -5 l123 0 10 38 c5
20 20 90 32 155 l23 117 108 0 c80 0 108 -3 108 -12 0 -7 -37 -190 -82 -405
l-82 -393 -108 0 c-66 0 -108 4 -108 10 0 9 51 259 65 318 5 22 5 22 -124 22
-115 0 -130 -2 -135 -17 -3 -10 -19 -89 -37 -175 l-33 -158 -108 0 c-59 0
-108 4 -108 9 0 11 159 772 165 789 3 8 35 12 113 12 l108 0 -31 -150z"/>
</g>
</svg>
