<?xml version="1.0" encoding="UTF-8" standalone="no"?>
<svg width="90px" height="37px" viewBox="0 0 90 37" version="1.1" xmlns="http://www.w3.org/2000/svg" xmlns:xlink="http://www.w3.org/1999/xlink" xmlns:sketch="http://www.bohemiancoding.com/sketch/ns">
    <!-- Generator: Sketch 3.4.3 (16618) - http://www.bohemiancoding.com/sketch -->
    <title>nhs-logotype-rev</title>
    <desc>Created with Sketch.</desc>
    <defs></defs>
    <g id="Page-1" stroke="none" stroke-width="1" fill="none" fill-rule="evenodd" sketch:type="MSPage">
        <g id="nhs-logotype-rev" sketch:type="MSLayerGroup">
            <g id="Group" sketch:type="MSShapeGroup">
                <rect id="Rectangle-path" fill="#FFFFFF" x="0" y="0.1" width="90" height="36"></rect>
                <path d="M8.8,3.6 L18.6,3.6 L24.6,24 L24.7,24 L28.8,3.6 L36.2,3.6 L30,33 L20.2,33 L14,12.6 L13.9,12.6 L10,33.1 L2.6,33.1 L8.8,3.6 L8.8,3.6 Z" id="Shape" fill="#0072C6"></path>
                <path d="M39.2,3.6 L47.1,3.6 L44.8,14.9 L54.1,14.9 L56.4,3.6 L64.3,3.6 L58.2,33 L50.3,33 L52.9,20.4 L43.6,20.4 L41,33.1 L33.1,33.1 L39.2,3.6 L39.2,3.6 Z" id="Shape" fill="#0072C6"></path>
                <path d="M85.1,10.3 C83.6,9.6 81.5,9 78.6,9 C75.5,9 72.9,9.5 72.9,11.8 C72.9,16 84.3,14.4 84.3,23.4 C84.3,31.5 76.8,33.6 69.9,33.6 C66.9,33.6 63.4,32.9 60.8,32.1 L62.7,26.1 C64.3,27.1 67.4,27.8 70,27.8 C72.4,27.8 76.3,27.3 76.3,24.3 C76.3,19.6 64.9,21.3 64.9,13 C64.9,5.4 71.6,3.1 78,3.1 C81.6,3.1 85,3.5 87,4.4 L85.1,10.3 L85.1,10.3 Z" id="Shape" fill="#0072C6"></path>
            </g>
        </g>
    </g>
</svg>